<svg width="972" height="366" viewBox="0 0 972 366" fill="none" xmlns="http://www.w3.org/2000/svg">
<g clip-path="url(#clip0_7_2)">
<path d="M944.561 150.852H849.422L870.564 24L712 214.277H807.139L785.997 341.129L944.561 150.852Z" fill="white"/>
<path d="M72.1933 132.4C95.78 132.4 115.5 151.733 115.113 175.32C114.727 198.327 95.9733 216.887 72.9667 216.887H58.8533V255.36C58.8533 258.067 56.7267 260.193 54.2133 260.193H49.5733V212.247C49.5733 209.54 51.5067 207.413 54.2133 207.413H72.9667C91.3333 207.413 106.22 192.333 105.833 173.773C105.447 155.987 90.3667 141.68 72.3867 141.68H47.64C44.9333 141.68 43 139.747 43 137.04V132.4H72.1933ZM329.428 257.1C328.848 258.84 327.108 260 325.175 260H317.248L367.321 135.3C367.901 133.56 369.641 132.4 371.575 132.4H379.501L329.428 257.1ZM263.501 257.1C262.921 258.84 261.181 260 259.248 260H254.221C252.288 260 250.548 258.84 249.775 257.1L199.895 132.4H207.628C209.561 132.4 211.301 133.56 212.075 135.3L256.735 246.66L287.088 170.68C288.441 167.587 292.888 167.587 294.048 170.68L312.221 214.953L307.195 217.08C304.681 218.047 301.975 216.887 301.008 214.567L290.761 189.433L263.501 257.1ZM465.636 257.1C464.862 259.033 463.122 260 461.382 260H453.456L503.722 135.3C504.496 133.56 506.236 132.4 508.169 132.4H512.809C514.742 132.4 516.482 133.56 517.256 135.3L552.442 216.887H504.689V211.28C504.689 208.767 506.816 206.64 509.522 206.64H536.782L510.489 145.933L465.636 257.1ZM638.104 260V137.04C638.104 134.527 640.037 132.4 642.744 132.4H648.544V255.36C648.544 258.067 646.417 260 643.711 260H638.104Z" fill="white"/>
</g>
<defs>
<clipPath id="clip0_7_2">
<rect width="972" height="366" fill="white"/>
</clipPath>
</defs>
</svg>
